<?xml version="1.0" standalone="no"?>
<!DOCTYPE svg PUBLIC "-//W3C//DTD SVG 20010904//EN"
 "http://www.w3.org/TR/2001/REC-SVG-20010904/DTD/svg10.dtd">
<svg version="1.0" xmlns="http://www.w3.org/2000/svg"
 width="814.000000pt" height="814.000000pt" viewBox="0 0 814.000000 814.000000"
 preserveAspectRatio="xMidYMid meet">
<metadata>
Created by potrace 1.14, written by Peter Selinger 2001-2017
</metadata>
<g transform="translate(0.000000,814.000000) scale(0.100000,-0.100000)"
fill="#000000" stroke="none">
<path d="M3839 8135 c-2 -1 -47 -6 -99 -9 -52 -4 -106 -8 -120 -10 -14 -3 -50
-7 -80 -10 -30 -4 -93 -13 -140 -21 -119 -21 -139 -25 -190 -36 -25 -6 -53
-12 -64 -14 -144 -30 -444 -125 -601 -191 -16 -6 -59 -24 -95 -39 -104 -44
-371 -181 -475 -244 -53 -33 -237 -153 -250 -163 -5 -5 -39 -30 -75 -56 -36
-25 -67 -49 -70 -52 -3 -3 -41 -34 -85 -70 -119 -96 -147 -122 -301 -275 -686
-681 -1101 -1575 -1181 -2545 -10 -121 -10 -572 1 -670 4 -41 9 -95 11 -120 4
-39 9 -73 20 -140 1 -8 6 -37 9 -63 4 -27 9 -59 12 -70 60 -317 178 -696 289
-932 191 -407 388 -713 660 -1025 71 -83 348 -352 433 -423 559 -464 1182
-758 1892 -892 14 -3 45 -8 70 -11 25 -3 54 -8 65 -10 11 -2 43 -7 70 -10 28
-3 61 -7 75 -10 113 -18 598 -26 775 -12 176 15 304 34 550 82 11 2 76 18 145
36 590 150 1177 458 1646 865 72 62 321 309 387 382 155 175 409 528 469 653
7 14 22 41 34 60 26 44 112 213 154 305 144 314 262 711 314 1060 17 113 19
129 34 290 15 165 8 611 -13 775 -2 19 -7 58 -10 85 -8 64 -13 94 -31 198 -12
71 -55 257 -79 342 -14 50 -27 100 -30 111 -11 49 -108 313 -151 412 -54 125
-148 315 -193 390 -17 29 -31 55 -31 57 0 7 -167 267 -192 300 -5 6 -37 49
-72 97 -36 47 -75 99 -88 114 -118 140 -171 198 -292 320 -78 77 -172 167
-211 200 -38 32 -72 61 -75 65 -3 3 -52 41 -110 85 -58 43 -107 81 -110 84 -3
3 -12 10 -22 15 -24 15 -171 113 -183 123 -56 46 -393 221 -568 296 -182 78
-470 175 -590 200 -12 3 -31 7 -42 10 -125 29 -168 39 -243 52 -48 8 -102 17
-121 20 -19 2 -46 6 -60 9 -14 2 -57 7 -96 11 -38 3 -81 8 -95 11 -31 5 -576
13 -581 8z"/>
</g>
</svg>
